<svg width="30" height="30" viewBox="0 0 30 30" fill="none" xmlns="http://www.w3.org/2000/svg">
<path d="M12.5 25.625C13.5355 25.625 14.375 24.7855 14.375 23.75C14.375 22.7145 13.5355 21.875 12.5 21.875C11.4645 21.875 10.625 22.7145 10.625 23.75C10.625 24.7855 11.4645 25.625 12.5 25.625Z" stroke="black" stroke-width="1.5"/>
<path d="M21.25 25.625C22.2855 25.625 23.125 24.7855 23.125 23.75C23.125 22.7145 22.2855 21.875 21.25 21.875C20.2145 21.875 19.375 22.7145 19.375 23.75C19.375 24.7855 20.2145 25.625 21.25 25.625Z" stroke="black" stroke-width="1.5"/>
<path d="M4.375 5H6.875L11.255 18.75H21.25" stroke="black" stroke-width="1.5" stroke-linecap="round" stroke-linejoin="round"/>
<path d="M10.28 15.625L7.875 8.125H23.5087C23.6078 8.12488 23.7055 8.14831 23.7938 8.19338C23.882 8.23844 23.9583 8.30384 24.0163 8.38418C24.0743 8.46452 24.1123 8.5575 24.1273 8.65544C24.1423 8.75339 24.1338 8.85349 24.1025 8.9475L22.0187 15.1975C21.9773 15.3219 21.8978 15.4301 21.7915 15.5068C21.6851 15.5836 21.5574 15.6249 21.4263 15.625H10.28Z" stroke="black" stroke-width="1.5" stroke-linecap="round" stroke-linejoin="round"/>
</svg>
