<svg width="106" height="102" viewBox="0 0 106 102" fill="none" xmlns="http://www.w3.org/2000/svg">
<g clip-path="url(#clip0_44079_998)">
<path d="M45.3001 22.8406V37.963H4.9812L45.3001 22.8406Z" fill="#191919"/>
<path d="M0 33.9439V37.963H3.3004V36.2484L45.3002 20.4776V16.9337L1.37871 33.4245L0 33.9439Z" fill="#191919"/>
<path d="M60.6997 22.8406V37.963H101.019L60.6997 22.8406Z" fill="#191919"/>
<path d="M106 33.9439V37.963H102.7V36.2484L60.6997 20.4776V16.9337L104.621 33.4245L106 33.9439Z" fill="#191919"/>
<path d="M56.3405 95.4209C56.3275 95.7349 56.3959 96.0549 56.2696 96.3833C55.8353 96.4955 55.3973 96.4657 54.9594 96.4657C54.9665 95.5857 54.9559 94.2496 54.95 93.5069H56.2212C56.429 93.8293 56.3216 94.1528 56.3381 94.4633C56.357 94.7797 56.3511 95.0997 56.3416 95.4197L56.3405 95.4209Z" fill="#9A9A9A"/>
<path d="M62.7087 88.3033C62.5883 88.7057 62.0441 89.0913 61.6251 89.2537C61.5873 89.2681 61.5484 89.2836 61.5165 89.2979C61.5047 89.3003 61.4929 89.3039 61.4811 89.3098C61.2474 89.3875 61.0101 89.4555 60.7693 89.5081C60.7433 89.514 60.7197 89.52 60.6902 89.526C59.9525 89.686 59.2029 89.7624 58.4439 89.7779C56.8279 89.8102 55.2167 89.7063 53.6125 89.5296C53.4603 89.5116 53.3139 89.4675 53.164 89.4352C53.1616 89.3934 53.1616 89.3528 53.1616 89.311C53.2549 89.2872 53.3493 89.2454 53.4426 89.243C53.812 89.231 54.1803 89.2346 54.5462 89.2227C55.4245 89.1928 56.3038 89.1725 57.1785 89.1224C58.6316 89.0364 60.1189 88.9325 61.5448 88.6221C61.9285 88.5397 62.2684 88.3797 62.6485 88.2722C62.6509 88.2722 62.6568 88.2699 62.6603 88.2699C62.6804 88.2699 62.7016 88.2842 62.7075 88.3057L62.7087 88.3033Z" fill="#999999"/>
<path d="M62.8397 85.6299C62.6473 86.0824 62.3675 86.3069 62.0217 86.4573C61.3559 86.7463 60.6548 86.9063 59.9395 86.9934C58.4203 87.1797 56.8976 87.1534 55.3748 87.0149C54.8342 86.966 54.2924 86.9278 53.7518 86.8764C53.5476 86.8573 53.3316 86.8705 53.1108 86.6961C53.2147 86.646 53.2844 86.5863 53.3552 86.5827C53.74 86.5672 54.126 86.5707 54.512 86.5576C55.3878 86.5278 56.2637 86.5075 57.1384 86.4561C58.6776 86.3666 60.211 86.2054 61.7278 85.9116C62.0689 85.846 62.403 85.7409 62.8409 85.6287L62.8397 85.6299Z" fill="#9A9A9A"/>
<path d="M53.2502 91.6836C53.5429 91.6585 53.8356 91.6215 54.1284 91.6119C54.9688 91.5857 55.8116 91.594 56.6509 91.5487C58.3471 91.4555 60.0422 91.3302 61.7042 90.9421C62.0595 90.8585 62.4101 90.7534 62.8173 90.6436C62.7949 90.7785 62.8032 90.8824 62.7618 90.9612C62.6237 91.2227 62.3888 91.3755 62.128 91.4949C61.5649 91.7528 60.9688 91.9021 60.3633 92C58.9728 92.2257 57.5763 92.2663 56.174 92.1313C55.2852 92.0454 54.3952 91.9785 53.5063 91.8985C53.4142 91.8902 53.3245 91.846 53.2336 91.8185C53.2395 91.7731 53.2443 91.729 53.2502 91.6836Z" fill="#999999"/>
<path d="M55.3408 99.3254V100.036C55.3408 100.072 55.3267 100.107 55.2995 100.134C55.08 100.339 53.9326 101.422 53.3625 101.936C53.2681 102.02 53.1276 102.021 53.0332 101.936C52.4323 101.395 51.298 100.334 51.0855 100.133C51.0595 100.106 51.0442 100.07 51.0442 100.035V99.3242C51.0442 99.249 51.1044 99.1881 51.1788 99.1881H55.2051C55.2795 99.1881 55.3397 99.249 55.3397 99.3242L55.3408 99.3254Z" fill="#191919"/>
<path d="M55.1495 100.036C55.0492 100.222 53.366 101.819 53.2515 101.842C53.2515 101.816 53.4828 101.436 53.641 101.034C53.8051 100.616 53.9928 100.276 53.9928 99.4101C54.3846 99.3982 54.7801 99.3779 55.1519 99.3481C55.1602 99.6704 55.1649 100.006 55.1495 100.036Z" fill="#9A9A9A"/>
<path d="M55.5401 96.4633C55.3064 96.4716 55.0739 96.4633 54.8401 96.4704C53.0719 96.4704 51.306 96.4466 49.5519 96.2961L49.2214 96.3737V98.7451C49.2214 98.8489 49.5614 99.151 51.0404 99.2848C51.4795 99.3266 52.0213 99.3504 52.6859 99.3504C52.8736 99.3504 53.04 99.3361 53.1864 99.3087C53.3328 99.3349 53.4992 99.3504 53.6869 99.3504C55.1341 99.3504 56.0005 99.2346 56.5045 99.0985C56.5222 99.0961 56.5399 99.0901 56.5541 99.0842C57.0168 98.9564 57.1514 98.8119 57.1514 98.7463V96.5922L55.5401 96.4645V96.4633Z" fill="#191919"/>
<path d="M62.8612 83.3869C62.8612 83.3869 62.8638 83.3895 62.8638 83.3935C62.8664 83.3908 62.8664 83.3843 62.8664 83.3803C62.8664 83.3829 62.8638 83.3829 62.8599 83.3869H62.8612Z" fill="#191919"/>
<path d="M62.8676 83.3803C62.8676 83.3803 62.8676 83.3895 62.8649 83.3935C62.8649 83.3935 62.8641 83.3913 62.8623 83.3869C62.8623 83.3869 62.8689 83.3843 62.8689 83.3803H62.8676Z" fill="#191919"/>
<path d="M62.8676 83.3803C62.8676 83.3803 62.8676 83.3895 62.8649 83.3935C62.8649 83.3935 62.8641 83.3913 62.8623 83.3869C62.8623 83.3869 62.8689 83.3843 62.8689 83.3803H62.8676Z" fill="#191919"/>
<path d="M62.8647 83.3869C62.8647 83.3869 62.8713 83.3843 62.8713 83.3803C62.8713 83.3829 62.8713 83.3895 62.8687 83.3935C62.8687 83.3935 62.8678 83.3913 62.8661 83.3869H62.8647Z" fill="#191919"/>
<path d="M106 39.9749H0V61.4424H42.459C42.4118 61.7206 42.354 61.9821 42.3504 62.2424C42.3481 62.5003 42.4378 62.8728 42.4885 63.1809C42.4035 63.1833 42.3221 63.1833 42.2395 63.1833H42.0754C41.9231 63.1857 41.7708 63.1833 41.6186 63.1833H3.3004V63.1809H0V66.9158C0.138107 66.9696 0.826281 67.2322 0.97265 67.2836C2.2463 67.7373 3.51996 68.1934 4.79715 68.6376C13.1898 71.5582 21.586 74.4728 29.981 77.3911C32.7278 78.3451 38.3855 80.3152 43.1614 81.9761C42.8651 82.8406 43.1531 83.1845 43.6382 83.5702C43.4624 83.8579 43.2865 84.1039 43.1555 84.3702C42.9123 84.8585 42.9855 85.2382 43.3573 85.6287C43.4388 85.7146 43.4978 85.8209 43.5686 85.9164C43.4777 86.0227 43.3845 86.1206 43.3018 86.2328C42.8863 86.8131 42.7482 87.3707 43.4187 88.2352C43.4801 88.3152 43.5296 88.4036 43.5851 88.4872C43.5615 88.5051 43.5497 88.529 43.5533 88.5588C43.421 88.8191 43.2428 89.0687 43.1755 89.3469C43.0551 89.8328 43.0528 90.3248 43.5733 90.6269C43.7232 90.7427 43.7752 90.8931 43.7728 91.0866C43.7645 91.4269 43.7669 91.7648 43.7704 92.1051V92.3654C43.7704 93.2012 43.7787 94.0334 43.7645 94.8681C43.7586 95.1582 43.8637 95.3481 44.1163 95.4543C44.3559 95.5546 44.5991 95.674 44.8541 95.7302C45.724 95.9224 46.5999 96.1099 47.4781 96.2699C48.0282 96.3702 48.9984 96.48 49.5485 96.554C49.6134 96.806 56.6935 96.8263 56.8375 96.646C57.2471 96.6078 58.1029 96.5302 58.5207 96.4896C59.4426 96.3952 60.3657 96.2854 61.2652 96.0418C61.6689 95.9319 62.0619 95.7779 62.4456 95.6096C62.7383 95.4818 62.8823 95.2454 62.8882 94.8931C62.9083 93.3349 62.9496 91.7767 62.985 90.2185C63.2541 89.9463 63.4159 89.6525 63.4713 89.3385C63.5858 88.8645 63.469 88.3427 63.2022 88.0227C63.1609 87.9725 63.1373 87.969 63.2164 87.8663C63.3014 87.7505 63.4454 87.4902 63.4914 87.3719C63.6437 86.9839 63.5941 86.5755 63.4147 86.16C63.3297 85.9678 63.2305 85.7803 63.1101 85.5415C63.096 85.5116 63.1042 85.4675 63.1302 85.4496C63.2235 85.3779 63.3202 85.3099 63.4111 85.2275C63.7535 84.9158 63.7889 84.523 63.6602 84.1051C63.6012 83.9212 63.4997 83.7528 63.4088 83.5773C63.3297 83.4257 63.2447 83.2752 63.1573 83.1128C63.1396 83.0806 63.1432 83.0412 63.1656 83.0125C63.4347 82.6782 63.646 82.3248 63.7015 81.8985C63.7074 81.8448 63.7428 81.7982 63.7924 81.7803C63.8184 81.7719 63.8455 81.76 63.8715 81.7505H63.8739L63.8762 81.7481C64.0202 81.6943 97.5235 69.92 101.202 68.64C102.479 68.1958 103.753 67.7397 105.026 67.286C105.173 67.2358 105.861 66.9719 105.999 66.9182V63.1833H102.698V63.1857H64.3802C64.228 63.1857 64.0781 63.1881 63.9258 63.1857C63.8845 63.1857 63.8408 63.1857 63.7995 63.1833C63.7062 63.1773 63.6118 63.1415 63.5327 63.1236C63.5764 62.8012 63.6496 62.5218 63.6472 62.2436C63.6449 61.9833 63.5858 61.7218 63.5386 61.4436H105.998V39.9761L106 39.9749ZM43.4199 82.0645C43.6276 82.1361 47.4498 83.4543 48.4602 83.8066C48.4838 83.8125 48.5039 83.8245 48.5275 83.8388C48.5275 83.8388 48.5298 83.8388 48.5298 83.8412C48.5499 83.8531 48.5711 83.8675 48.5912 83.8794C48.5888 83.9116 48.5853 83.9451 48.5829 83.9773C47.8334 83.9331 47.0803 83.9057 46.3343 83.8352C45.7606 83.7815 45.1857 83.6896 44.618 83.5809C44.3488 83.5308 44.0821 83.4245 43.8306 83.3027C43.303 83.0543 43.2015 82.689 43.421 82.0645H43.4199ZM44.7549 95.4985C44.5967 95.4328 44.3217 95.3063 44.2131 95.2561C44.0526 95.1821 43.9853 95.0579 43.9876 94.8764C43.99 94.1206 43.9876 93.1845 43.9876 92.4C44.1222 92.5003 44.4976 92.6818 44.7549 92.7618V95.4985ZM56.0502 96.3988C55.748 96.4191 55.1566 96.4609 54.8438 96.4705C51.5635 96.4705 48.2489 96.3725 45.0571 95.5642V92.8036C45.1503 92.8275 45.2471 92.8478 45.3534 92.8693C45.3675 92.8717 45.3829 92.8752 45.4006 92.8776C45.4537 92.886 45.5092 92.8979 45.5647 92.9075C46.2233 93.0257 47.0673 93.1355 48.1155 93.2478C48.1474 93.2537 48.1769 93.2561 48.2064 93.2561L48.2147 93.2585C48.8296 93.3146 49.447 93.3588 50.062 93.4066C51.6898 93.5343 53.3211 93.4782 54.9524 93.5069H56.0159C56.1269 93.5069 56.2178 93.5988 56.2178 93.7111L56.2355 96.1934C56.2378 96.2997 56.1564 96.3893 56.0513 96.3976L56.0502 96.3988ZM61.4328 95.7146C60.9441 95.9308 59.9419 96.129 59.2833 96.1469V93.3421C60.0883 93.2597 60.8036 93.1439 61.3797 92.9839H61.3997C61.4765 93.3696 61.4965 94.9385 61.4316 95.7146H61.4328ZM62.7643 90.96C62.6262 91.2203 62.3924 91.3743 62.1316 91.4937C61.5662 91.7516 60.9724 91.9021 60.3657 92C58.9752 92.2257 57.5776 92.2663 56.1753 92.1302C55.2876 92.0478 54.3976 91.9785 53.5076 91.8985C53.4167 91.8902 53.3258 91.8448 53.2349 91.8185C53.2408 91.7743 53.2467 91.7266 53.2526 91.6824C53.5453 91.6585 53.8381 91.6203 54.1308 91.6108C54.9713 91.5845 55.8141 91.5928 56.6522 91.5487C58.3508 91.4543 60.0458 91.329 61.7066 90.9409C62.0643 90.8585 62.4125 90.751 62.8198 90.6412C62.7997 90.7749 62.8056 90.8812 62.7643 90.9576V90.96ZM63.0724 89.7254C63.0169 89.8531 62.9225 89.9618 62.8493 90.0812C62.5978 90.3475 62.2815 90.4609 61.9297 90.5516C60.5475 90.9158 59.1393 91.0699 57.7192 91.1761C54.8284 91.3958 51.9353 91.4042 49.0398 91.3361C48.1639 91.3158 47.2916 91.1905 46.4193 91.1045C46.0533 91.0663 45.6898 90.9982 45.3239 90.9564C44.762 90.8908 44.2261 90.7403 43.7161 90.4943C43.2971 90.1421 43.277 89.7063 43.4588 89.2263C43.5261 89.0519 43.5993 88.874 43.6666 88.6985C43.7102 88.6806 43.7539 88.6603 43.8425 88.6209C43.8602 88.763 43.8956 88.8848 43.8838 88.997C43.8365 89.4854 44.0974 89.791 44.5011 89.9391C44.9261 90.0991 45.3734 90.2328 45.822 90.2794C46.6742 90.3678 47.5347 90.4131 48.3964 90.4358C49.5001 90.4657 50.6073 90.4836 51.711 90.4657C52.9233 90.4454 54.1332 90.3893 55.3419 90.326C56.6569 90.2603 57.9718 90.1863 59.2809 90.074C59.9951 90.0143 60.7045 89.8722 61.4163 89.7624C61.5544 89.7385 61.6889 89.6943 61.82 89.6466C62.0596 89.5642 62.3086 89.3505 62.5459 89.0484C62.73 88.812 62.8209 88.4 62.8941 88.2925C62.926 88.2448 63.0818 88.3284 63.0936 88.3463C63.1019 88.3606 63.1113 88.3821 63.1231 88.406C63.129 88.4143 63.1314 88.4239 63.1349 88.4322C63.3309 88.8585 63.2577 89.2907 63.0735 89.7206L63.0724 89.7254ZM53.1653 89.3099C53.2585 89.286 53.3529 89.2442 53.4462 89.2418C53.8157 89.2299 54.1839 89.2334 54.5499 89.2215C55.4281 89.1916 56.3075 89.1713 57.1822 89.1212C58.6352 89.0352 60.1225 88.9314 61.5485 88.6209C61.9321 88.5385 62.2721 88.3785 62.6521 88.2711C62.6545 88.2711 62.6604 88.2687 62.6639 88.2687C62.684 88.2627 62.7053 88.2567 62.7253 88.2507C62.723 88.2687 62.7171 88.2866 62.7112 88.3045C62.5908 88.7069 62.0466 89.0925 61.6276 89.2549C61.5898 89.2693 61.5508 89.2848 61.519 89.2991C61.5071 89.3015 61.4953 89.3051 61.4835 89.311C61.205 89.4173 61.0976 89.4412 60.7718 89.5093C60.7458 89.5152 60.7222 89.5212 60.6927 89.5272C59.9549 89.6872 59.2054 89.7636 58.4464 89.7791C56.8304 89.8114 55.2192 89.7075 53.615 89.5308C53.4627 89.5128 53.3163 89.4687 53.1664 89.4364C53.1641 89.3946 53.1641 89.354 53.1641 89.3122L53.1653 89.3099ZM62.9461 87.7576C62.2225 88.3881 59.9856 88.6161 59.1298 88.6902C57.9589 88.7905 56.7867 88.8705 55.6122 88.9039C53.7354 88.9576 51.855 88.9839 49.9782 88.9839C48.8568 88.9815 47.7319 88.9242 46.6105 88.8657C46.1041 88.8394 45.6001 88.7594 45.096 88.6913C44.6416 88.6293 44.2119 88.4752 43.8011 88.2675C43.6961 88.1516 43.5839 88.0394 43.4907 87.9116C43.172 87.4854 43.0894 87.0113 43.388 86.5373C43.4907 86.3749 43.5875 86.209 43.6902 86.043C43.7256 86.117 43.7811 86.1851 43.7952 86.2627C43.833 86.4346 43.8389 86.6149 43.8802 86.7869C43.9888 87.2406 44.2615 87.557 44.723 87.6287C45.3463 87.7266 45.9731 87.8269 46.6034 87.8448C48.3752 87.889 50.147 87.9224 51.9211 87.9069C53.4639 87.8925 55.0043 87.803 56.5483 87.7552C57.8774 87.7111 59.1983 87.5773 60.5133 87.3731C60.5746 87.3612 60.8792 87.2908 60.9382 87.2788C61.1519 87.2311 61.7586 87.1367 62.2237 86.7785C62.5258 86.5469 62.7596 86.1206 62.8504 85.8507C62.8623 85.8149 62.9154 85.8066 62.9378 85.8364C63.3828 86.4167 63.456 87.311 62.9437 87.7588L62.9461 87.7576ZM53.1133 86.6973C53.2184 86.6472 53.2892 86.5851 53.3588 86.5815C53.7425 86.5672 54.1285 86.5731 54.5156 86.5576C55.3915 86.5278 56.2673 86.5075 57.142 86.4573C58.6789 86.3654 60.2134 86.2054 61.7314 85.9128C62.0383 85.8531 62.3405 85.7612 62.7182 85.6609C62.7678 85.649 62.8115 85.7027 62.7891 85.7469C62.599 86.123 62.3382 86.3212 62.0242 86.4573C61.3596 86.7451 60.6561 86.9051 59.9419 86.9934C58.4216 87.1797 56.8989 87.1534 55.3797 87.0137C54.8379 86.966 54.2961 86.9278 53.7543 86.8776C53.5524 86.8573 53.3352 86.8717 53.1133 86.6973ZM63.4324 84.1349C63.6165 84.5946 63.4796 84.9588 63.0488 85.2191C62.5306 85.5355 61.9651 85.7349 61.3679 85.8054C60.2902 85.9331 59.2101 86.0537 58.1265 86.1433C54.9902 86.3976 51.8456 86.3749 48.7033 86.3594C47.5961 86.3534 46.4925 86.2794 45.397 86.123C44.9662 86.0609 44.5389 85.9367 44.1257 85.797C43.9003 85.723 43.689 85.5749 43.4966 85.4269C43.2275 85.2167 43.1838 84.9206 43.2947 84.609C43.3797 84.3773 43.4824 84.1528 43.702 83.9785C43.7893 84.1767 43.8401 84.3809 43.9593 84.5325C44.0738 84.6806 44.2497 84.7905 44.4161 84.8848C44.5979 84.9851 44.7939 85.0806 44.9957 85.1307C45.4384 85.2346 45.8857 85.3505 46.3366 85.3887C47.1216 85.4567 47.9148 85.5009 48.7033 85.5009C50.7029 85.5033 52.7061 85.5093 54.7069 85.4508C56.6333 85.397 58.5632 85.2884 60.4731 84.9743C60.9949 84.8884 61.5095 84.7821 61.9876 84.5445C62.1599 84.4621 62.3157 84.3642 62.4444 84.2424C62.6285 84.0585 62.7666 83.84 62.8481 83.6884C62.9272 83.5427 62.9685 83.4102 62.998 83.4102C63.0039 83.4102 63.0098 83.4102 63.0157 83.4125C63.0181 83.4149 63.0216 83.4149 63.024 83.4149C63.0358 83.4209 63.0476 83.4269 63.0535 83.4352C63.1939 83.6609 63.338 83.889 63.4347 84.1337L63.4324 84.1349ZM55.7775 84.6364C56.3889 84.2806 58.3921 84.0502 58.9433 84.0119C60.3929 83.9021 60.6655 83.8018 62.0773 83.4316L62.1623 83.9916C61.9333 84.1134 61.6854 84.1958 61.4328 84.2734C60.7588 84.4776 60.0706 84.5875 59.3742 84.6639C58.516 84.7558 57.6614 84.7439 56.8033 84.726C56.481 84.72 56.1564 84.6722 55.7787 84.6376L55.7775 84.6364ZM63.0865 82.7081C62.841 82.9361 62.5624 83.1284 62.2343 83.2119C61.0515 83.5021 59.8475 83.7063 58.6376 83.7063C58.5963 83.7063 58.5727 83.6884 58.5585 83.674C58.5172 83.6299 58.6813 83.5582 58.7427 83.5379C60.1107 83.0579 61.9604 82.4155 63.3958 81.9176C63.4312 82.24 63.2907 82.5194 63.0853 82.7081H63.0865ZM102.7 63.5069V64.677L53.3825 82.406C53.2361 82.4561 53.0779 82.4561 52.9315 82.406L3.3004 64.677V63.5069C15.4916 63.5045 29.4805 63.5045 41.6162 63.5045C41.6162 63.5045 99.0167 63.5069 102.7 63.5069ZM105.707 61.1451H0.292739V40.2699H105.707V61.1451Z" fill="#191919"/>
<path d="M62.8669 83.3803C62.5186 83.8961 61.9851 84.1063 61.4291 84.2722C60.7551 84.4764 60.0669 84.5863 59.3705 84.6627C58.5124 84.7546 57.6577 84.7427 56.7996 84.7248C56.6036 84.7224 55.9969 84.7009 55.4705 84.6806L57.2387 84.0645C57.4583 84.0382 57.64 84.0203 57.7604 84.0108C59.3799 83.889 61.2568 83.7051 62.8232 83.2167C62.9495 83.1785 62.8669 83.3791 62.8669 83.3791V83.3803Z" fill="#999999"/>
<path d="M51.3381 3.47224V2.65911L56.4221 2.41791L56.6712 3.41612C56.6712 3.41612 56.7408 3.72418 56.7385 3.75284C56.7361 3.78149 56.2887 3.94746 56.2887 3.94746" fill="#9C9C9C"/>
<path d="M56.1116 5.7803L56.1258 5.22507L55.9924 4.88836L52.6873 4.77134V5.4209C52.6873 5.4209 53.1559 5.41493 53.3802 5.44478C53.6044 5.47463 53.7166 5.56179 53.7166 5.64657V7.93433L55.3195 8.02746" fill="#9C9C9C"/>
<path d="M54.0588 9.23463C54.0588 9.23463 53.5347 8.30806 53.3812 8.2591C53.2278 8.21015 51.4831 7.94866 51.1467 8.02507L51.8479 7.99522L55.7798 8.02269L56.1257 8.19702L56.7666 9.49731L54.06 9.23463H54.0588Z" fill="#9C9C9C"/>
<path d="M55.5297 11.3302C55.5415 11.8902 55.2712 12.3797 55.2157 12.9779C55.0256 12.9839 54.6692 12.8919 54.5157 12.8943C54.557 11.7863 54.5393 10.4537 54.5039 9.29791C54.7671 9.30627 55.0752 9.31582 55.2735 9.3397C55.3703 9.94985 55.5167 10.7558 55.5285 11.3302H55.5297Z" fill="#999999"/>
<path d="M54.5193 13.2107H54.2761V14.7379H54.5193V13.2107Z" fill="#999999"/>
<path d="M54.8817 15.1809C55.2488 15.8866 55.3774 17.2478 55.3774 17.2478L54.7943 17.2167C54.7943 17.2167 54.8238 15.5857 54.2761 15.1116" fill="#999999"/>
<path d="M55.6442 25.6501C55.6442 25.6501 55.5663 24.689 54.8899 24.554L57.6402 24.7331L58.3874 24.9313L59.1287 25.4197L59.4297 25.8328L59.2786 26.0251L55.0481 25.9307" fill="#979797"/>
<path d="M55.5804 21.4937C55.5757 21.1749 55.5662 20.763 55.2534 20.5743C55.2534 20.5743 56.0714 20.6997 56.1647 20.6794C56.2579 20.6591 58.1419 20.8764 58.1419 20.8764L58.9504 21.2645L59.3341 21.7612L56.8989 21.8603" fill="#979797"/>
<path d="M55.0409 39.6991C55.0409 38.763 55.0492 37.6693 55.0409 36.7331C55.0327 35.6346 54.8887 34.5528 54.6089 33.489C54.5641 33.3194 54.5416 33.1439 54.5098 32.972C54.917 32.9242 55.82 32.9278 56.2402 32.9863C56.2662 33.1164 55.7976 33.3325 55.7976 33.4496C55.8023 35.3493 56.2438 37.2179 56.2414 39.1188C56.2414 39.2227 56.0301 39.4567 56.016 39.5666C55.7799 39.717 55.2806 39.7134 55.0398 39.6979L55.0409 39.6991Z" fill="#9A9A9A"/>
<path d="M55.9215 33.0304C55.8365 32.4931 55.6842 31.7254 55.0185 31.4925C54.3527 31.2597 55.7102 29.2549 55.7102 29.2549C55.7102 29.2549 55.7916 28.48 55.081 28.4227L55.3785 28.3785L57.4241 28.6054L58.5266 28.9851L59.118 29.286L59.1676 29.3934V29.6704L57.7841 30.2436C57.7841 30.2436 57.8786 31.4281 57.875 31.4352C57.8715 31.4424 58.8689 32.7081 58.8689 32.7081L59.1676 33.4269" fill="#9A9A9A"/>
<path d="M57.6177 32.1742C57.5941 32.1719 57.5705 32.1683 57.5469 32.166C57.6555 32.1837 57.7641 32.2013 57.875 32.2214C57.7959 32.2013 57.7086 32.186 57.6177 32.1742Z" fill="#191919"/>
<path d="M59.3081 17.7313C59.0626 17.163 58.7663 16.6173 58.5172 16.0513C58.365 15.7075 58.1159 15.5475 57.7677 15.4675C56.7396 15.2275 55.6973 15.0854 54.6455 15.0472C53.667 15.0113 52.6837 15.0269 51.7028 15.0412C50.9438 15.0496 50.1919 15.1236 49.4447 15.2549C49.4034 15.2633 49.3632 15.2693 49.316 15.2788C49.126 15.3146 48.9241 15.3564 48.7305 15.397C48.6715 15.409 48.6137 15.4233 48.5547 15.4352C48.4956 15.4472 48.4402 15.4615 48.3847 15.4734C48.2737 15.4997 48.1675 15.5236 48.0742 15.551C48.0483 15.5594 48.0211 15.5654 47.9951 15.5749C47.7673 15.637 47.6092 15.6931 47.5761 15.7313C47.2515 16.1313 46.8797 16.9636 46.7097 17.5976C46.6282 17.9033 46.5928 18.16 46.6306 18.3057C46.6365 18.3176 46.6389 18.3296 46.6448 18.3415C47.1547 18.5278 47.4651 18.9218 47.5997 19.446C47.6646 19.6979 47.6469 19.9701 47.6646 20.234C47.6705 20.3522 47.6646 20.5361 47.6646 20.6782C48.7069 20.4263 49.591 20.406 50.3583 20.3821C51.8137 20.3319 53.2692 20.32 54.7246 20.3319C55.8082 20.3439 56.8623 20.3021 58.2741 20.6639C58.169 20.1875 58.2068 19.6418 58.3827 19.2179C58.5704 18.7642 58.8926 18.4681 59.3837 18.3116C59.36 18.1039 59.3813 17.8973 59.3069 17.7313H59.3081ZM55.4966 17.0496C53.327 17.0985 49.8661 17.2179 48.3209 17.3994C48.2123 17.4113 48.1014 17.4293 47.9928 17.4472H47.9869C47.5419 17.5128 47.0756 17.6012 47.0142 17.5809C46.9529 17.5606 46.9788 17.3469 47.1866 16.9146C47.3565 16.5624 47.5383 16.1504 47.6375 15.9904C47.6375 15.9881 47.6812 15.9284 47.693 15.9188C47.7107 15.9104 47.8157 15.8651 47.8216 15.8627C47.9243 15.8245 48.0849 15.7684 48.308 15.7063C48.3434 15.6943 48.3847 15.6824 48.4248 15.674C48.4838 15.6561 48.5476 15.6418 48.6184 15.6263C48.6857 15.6084 48.7589 15.5904 48.8321 15.5761C48.8557 15.5701 48.8816 15.5642 48.9076 15.5582C48.9843 15.5403 49.0681 15.526 49.1531 15.5081C50.1753 15.3063 51.2117 15.2322 52.254 15.2143C52.9717 15.2024 53.6918 15.2287 54.4094 15.2406C54.5298 15.2466 54.9076 15.2657 55.1921 15.28C55.3243 15.286 55.7893 16.4716 55.7893 16.9564C55.7893 17.0496 55.5497 17.0496 55.4942 17.0507L55.4966 17.0496Z" fill="#191919"/>
<path d="M59.4302 29.7958C59.4656 29.7636 59.4798 29.7015 59.4798 29.6836C59.4857 29.6513 59.4774 29.6096 59.4561 29.5618C59.4561 29.5618 59.4538 29.5594 59.4538 29.5558C59.4396 29.526 59.4219 29.4961 59.4042 29.4639C59.4018 29.4579 59.3959 29.4519 59.3924 29.446C59.3428 29.3696 59.2755 29.286 59.1965 29.2C59.1882 29.1881 59.1788 29.1797 59.1705 29.1737C58.8482 28.8716 58.2923 28.6316 57.4164 28.4919C57.3373 28.48 57.2523 28.4681 57.1673 28.4561C56.2596 28.3463 54.9092 28.2663 52.8884 28.2663C50.7684 28.2663 49.3944 28.3582 48.5079 28.4919C47.6498 28.6197 47.2461 28.7881 47.0584 28.9516C47.056 28.9576 47.0501 28.96 47.0466 28.9636C47.0348 28.9755 47.023 28.9839 47.0147 28.9958C46.9911 29.0197 46.9675 29.046 46.9474 29.0699C46.8884 29.1319 46.8329 29.1916 46.7834 29.2502C46.578 29.4866 46.4529 29.6884 46.6134 29.834L46.6157 29.8364C46.6157 29.8364 46.6181 29.8388 46.6216 29.8388C47.3216 30.4191 47.7371 31.1033 47.4538 32.0896C47.2142 32.4096 46.9557 32.7176 46.7397 33.0519C46.5957 33.2681 46.5166 33.514 46.5201 33.7982C46.5343 35.6263 46.526 37.4531 46.5284 39.2812C46.5284 39.4173 46.5544 39.5511 46.5697 39.6752C47.1056 39.7696 56.131 39.8113 58.86 39.7373C58.9804 39.7313 59.0973 39.7075 59.2319 39.6896C59.2437 39.5475 59.2637 39.4257 59.2637 39.3039C59.272 37.6012 59.2814 35.8997 59.2779 34.197C59.2779 33.9272 59.2602 33.6967 59.2283 33.5033C59.0761 32.5552 58.6216 32.4012 58.5083 32.0848C58.5024 32.0788 58.5024 32.0728 58.5 32.0669C58.1813 31.0448 58.6204 30.3964 59.4314 29.7922L59.4302 29.7958ZM47.8457 33.3278C47.9956 33.3075 48.1585 33.28 48.3226 33.2561C48.4076 33.68 48.4277 38.7952 48.3462 39.557C48.1349 39.5511 47.9602 39.5451 47.828 39.5391C47.7607 38.8609 47.7749 33.7839 47.8457 33.3278ZM48.7098 39.563C48.672 39.3528 48.6508 33.5176 48.6838 33.2036C50.4639 32.9397 52.2356 32.8716 54.0133 32.9493C54.0133 32.9493 55.2398 33.0173 55.791 33.0675C55.7934 34.9302 55.7934 37.6979 55.7934 39.5606C53.7489 39.563 48.7098 39.563 48.7098 39.563ZM58.7125 33.206C58.238 33.1379 57.3739 33.0078 56.7825 32.9302C56.4426 32.886 55.1866 32.7964 54.8384 32.7821C53.9956 32.7463 53.1516 32.7081 52.3112 32.7021C50.9761 32.6902 49.6458 32.8179 48.3261 33.0161C47.913 33.0782 47.4302 33.1463 46.9522 33.2179C47.1304 32.8358 47.3854 32.5134 47.684 32.3176C48.1668 32.2639 48.6531 32.2173 49.1394 32.1576C51.1898 31.9176 53.2449 31.8794 55.307 31.9678C55.392 31.9737 55.4794 31.9881 55.5679 31.9976C56.2301 32.0036 56.8852 32.0657 57.5392 32.166C57.5628 32.1684 57.5864 32.1719 57.61 32.1743C57.7009 32.1863 57.9877 32.234 58.0668 32.2543H58.0692C58.9014 32.474 59.0654 33.1988 58.7137 33.2048L58.7125 33.206ZM58.6369 29.4555C58.0456 29.3254 57.2193 29.2275 56.0342 29.1654C55.3873 29.1355 54.6318 29.1152 53.7442 29.1057C53.4833 29.0997 53.2083 29.0997 52.9238 29.0997H52.7892C52.5957 29.0997 52.4056 29.1021 52.2215 29.1057H52.0574C49.4747 29.126 47.9933 29.2597 47.0844 29.4758C46.9522 29.4197 47.0844 29.2358 47.2862 29.0902C47.5412 28.9003 47.5707 28.48 52.9002 28.48C58.2297 28.48 58.9002 29.2382 59.0406 29.3863C59.1811 29.5343 58.8589 29.4866 58.6369 29.4543V29.4555Z" fill="#191919"/>
<path d="M59.3353 21.6394C59.0273 21.157 58.6177 20.8693 58.0298 20.7773C56.814 20.5851 55.5935 20.4872 54.3694 20.4836C52.8963 20.4812 51.4267 20.5313 49.9559 20.5899C49.7044 20.6018 48.7731 20.6961 48.5264 20.7522H48.5205C48.4497 20.7666 48.38 20.7821 48.3092 20.8024C47.6151 20.9767 46.8715 21.2967 46.6142 21.6406C46.4702 21.8305 46.4855 22.1051 46.6555 22.2687C46.7405 22.3487 46.8432 22.4143 46.9423 22.4669C47.2445 22.6209 47.4074 22.9027 47.4924 23.2131C47.5715 23.5009 47.5892 23.803 47.6328 24.1015C47.6506 24.2173 47.6683 24.3319 47.6919 24.4716C47.9055 24.4716 50.8164 24.2973 52.764 24.2639C54.7577 24.2316 56.8223 24.2555 57.7253 24.4179C57.9248 24.4537 58.1266 24.4836 58.3521 24.5218C58.3957 24.1516 58.4193 23.8197 58.4748 23.4913C58.5563 23.0412 58.7534 22.6555 59.1689 22.4155C59.2563 22.3618 59.3471 22.2973 59.4062 22.2173C59.4675 22.1373 59.4935 22.0334 59.4794 21.9475C59.4593 21.8412 59.4003 21.7337 59.3353 21.637V21.6394ZM58.5539 21.6036C57.154 21.3576 55.898 21.3099 53.019 21.3099C49.8709 21.3099 48.5713 21.6836 47.1914 21.686C47.0568 21.6884 47.019 21.6478 47.0686 21.6036C47.2622 21.4293 47.6694 21.2418 48.0118 21.1272C48.5536 20.9469 49.1213 20.8454 49.6926 20.8107C49.9972 20.7904 50.2994 20.7725 50.6039 20.763C51.8929 20.7248 53.1807 20.7033 54.4697 20.683C54.7825 20.677 55.0989 20.6973 55.4129 20.7069C56.3005 20.6985 57.1787 20.8227 58.0546 20.9385C58.4323 20.9863 58.7428 21.1809 58.9741 21.4866C59.006 21.5307 59.1063 21.7027 58.5551 21.6048L58.5539 21.6036ZM52.914 3.3206C50.6381 3.3206 49.3326 3.80299 49.2889 3.85672C49.2417 3.91045 49.7871 5.34328 49.8426 5.34328C49.9075 5.34328 50.9557 5.0209 52.7888 5.0209C54.622 5.0209 56.2096 5.23701 56.2557 5.22507C56.3052 5.21075 56.7656 3.78269 56.7385 3.75284C56.7149 3.7206 55.1898 3.3206 52.914 3.3206ZM56.1612 0.49791C56.1317 0.471642 55.1036 0 53.2067 0C51.3098 0 50.0763 0.488358 49.9913 0.55403C49.9063 0.619702 49.8508 0.829851 49.5817 2.06448C49.3126 3.3003 49.3645 3.49493 49.4318 3.41493C49.4967 3.33493 51.2 2.98269 53.3 2.98269C55.3999 2.98269 56.539 3.43642 56.67 3.41493C56.7609 3.40299 56.1872 0.526567 56.1601 0.496716L56.1612 0.49791Z" fill="black"/>
<path d="M56.1245 5.70866C56.1221 5.67881 54.3905 5.32657 52.9209 5.32657C51.4513 5.32657 49.8955 5.59642 49.8955 5.69075C49.8955 5.78508 49.8483 8.2794 49.8955 8.2794C49.9451 8.27702 50.4172 8.09911 52.9209 8.09911C55.4245 8.09911 56.0631 8.2412 56.1245 8.19702C56.1245 8.19702 56.1268 5.73851 56.1245 5.70866ZM50.645 8.00955C50.4397 8.02388 50.3405 8.02985 50.3405 8.01552C50.3405 7.9594 50.2992 5.7612 50.3405 5.75284C50.4432 5.73254 50.5459 5.71463 50.645 5.69672V8.01075V8.00955ZM54.5569 7.89493C52.6423 7.85672 51.4123 7.94866 50.7997 7.99523V5.67045C53.0047 5.31224 54.4802 5.57851 54.5569 5.60239C54.6419 5.62627 54.5829 7.89851 54.5569 7.89493Z" fill="black"/>
<path d="M56.7596 12.9922C56.6805 12.7224 56.7832 9.53552 56.7655 9.49731C56.7513 9.4591 56.0856 9.12119 53.0555 9.12119C50.0254 9.12119 49.3596 9.42925 49.3124 9.49731C49.2652 9.56537 49.3101 12.9982 49.3101 13.0818C49.3101 13.1654 48.2324 13.7481 48.2241 13.8137C48.2158 13.8794 48.2005 15.2179 48.2772 15.2561C48.3587 15.2979 49.0551 14.9433 52.6671 14.8501C56.2508 14.7582 57.7865 15.4269 57.7865 15.1248V13.9164C57.7865 13.8746 56.841 13.2621 56.7619 12.9922H56.7596ZM49.2865 14.9122C48.7765 14.9779 48.4437 15.0281 48.4437 15.0281C48.4023 15.0221 48.4059 14.0298 48.4437 13.994C48.4578 13.9797 48.7624 13.8818 49.2865 13.7719V14.9122ZM49.5615 9.60955C49.5615 9.60955 49.7338 9.58567 50.0266 9.54985V12.9146C49.8767 12.923 49.722 12.9325 49.5615 12.9445V9.60955ZM54.9642 14.4824C54.9642 14.5684 54.4342 14.6507 52.6659 14.6507C51.6473 14.6507 50.4019 14.7749 49.5296 14.8824V13.7242C50.2768 13.5785 51.3687 13.434 52.6659 13.434C53.6386 13.434 54.4 13.5116 54.9642 13.6V14.4824ZM55.0409 12.8824C54.5109 12.8824 53.9396 12.6842 50.2556 12.9003V9.52358C51.325 9.40776 53.4238 9.22985 55.0409 9.43164V12.8824Z" fill="black"/>
<path d="M59.1653 25.3827C59.1122 25.3266 58.8548 25.0364 58.4535 24.8728C57.9034 24.6472 57.0854 24.5445 56.1753 24.529C56.173 24.5266 56.1694 24.5266 56.1671 24.5266H55.9333C55.8106 24.5242 55.6784 24.5242 55.5415 24.5242H55.5237C55.2275 24.5099 54.9347 24.4943 54.6396 24.486C53.0119 24.4418 51.3829 24.4716 49.7575 24.5958C49.146 24.64 48.531 24.6496 47.9267 24.7522C47.3731 24.8466 46.8348 25.1666 46.5362 25.6585C46.4689 25.7684 46.4866 25.9104 46.5834 25.9988C46.7357 26.1385 46.8938 26.277 47.0343 26.4346C47.307 26.7367 47.5525 27.0591 47.5879 27.4925C47.6375 27.7624 47.6847 28.0322 47.7378 28.3284C50.631 27.9522 55.0622 27.8281 58.3591 28.3487C58.2823 27.5045 58.6341 26.8406 59.1995 26.2627C59.2762 26.1827 59.4474 26.0728 59.5017 25.9284C59.5466 25.8054 59.2904 25.52 59.1676 25.3839L59.1653 25.3827ZM59.2219 25.8507C58.8064 25.8245 57.6083 25.5988 55.6996 25.5045C55.3573 25.4866 54.9914 25.4746 54.6019 25.4663C54.0577 25.4543 53.51 25.446 52.9646 25.4484C50.9851 25.4543 49.0115 25.5701 47.0461 25.8364C47.0024 25.8424 46.9611 25.8484 46.9174 25.8507C46.8938 25.8531 46.7451 25.8567 46.7274 25.791C46.7132 25.7373 46.8242 25.6191 46.8478 25.5869C47.1146 25.243 47.5041 25.0066 47.87 24.9469C48.7813 24.7988 49.6831 24.751 50.5908 24.7164C52.0085 24.6663 53.4285 24.6687 54.8486 24.6484C55.133 24.6627 55.4199 24.6806 55.7032 24.6925C55.8236 24.6985 55.9345 24.7045 56.0455 24.7104C56.9473 24.7522 57.5446 24.7666 58.0132 24.8788C58.084 24.8931 58.1478 24.911 58.2127 24.9349C58.2328 24.9409 58.2564 24.9469 58.2741 24.9552C58.28 24.9552 58.2823 24.9552 58.2882 24.9576C58.326 24.9719 58.365 24.9875 58.3992 25.0018C58.6601 25.1176 58.882 25.2896 59.0815 25.4961C59.0956 25.514 59.1901 25.6024 59.2574 25.6884C59.2574 25.6884 59.2597 25.6884 59.2597 25.6907C59.2715 25.7051 59.2833 25.7206 59.2916 25.7349C59.3093 25.7648 59.3211 25.791 59.3152 25.809C59.3034 25.8352 59.2538 25.8448 59.2219 25.8472V25.8507Z" fill="#191919"/>
<path d="M56.1564 24.5265H55.9392C56.0124 24.5206 56.0856 24.5182 56.1564 24.5265Z" fill="#979797"/>
<path d="M5.42743 48.357C5.41799 47.8603 4.70148 45.0054 4.38514 44.1899C4.23286 44.1648 4.06052 44.1481 3.89409 44.1087C3.67453 44.0561 3.514 43.9236 3.45734 43.6943C3.38179 43.3958 3.59545 43.0663 3.93304 43.0675C4.36271 43.0699 4.78057 42.9648 5.22912 43.0567C5.82522 43.1785 6.45202 43.1642 7.06583 43.169C8.57556 43.1821 10.0877 43.2072 11.5962 43.163C13.0162 43.1212 14.4362 43.0185 15.8527 42.9027C17.5147 42.7678 19.1732 42.5922 20.8328 42.4287C21.3569 42.3773 21.8787 42.3057 22.4028 42.2496C22.594 42.2293 22.7888 42.2125 22.98 42.2233C23.2704 42.24 23.451 42.4155 23.4817 42.6746C23.5135 42.9361 23.379 43.1582 23.1169 43.2525C23.0189 43.2872 22.9115 43.2967 22.8076 43.3087C21.9365 43.4102 21.0654 43.5164 20.1919 43.6072C18.8828 43.7433 17.5738 43.8746 16.2623 43.9952C15.5458 44.0609 14.8281 44.1182 14.1093 44.1493C12.6715 44.2102 11.2326 44.2746 9.79373 44.2925C8.60035 44.3081 7.40578 44.2603 6.2124 44.2424C6.02353 44.24 5.83467 44.2424 5.58914 44.2424C5.935 45.5928 6.26787 46.8907 6.60901 48.2221C6.96903 48.2018 7.29955 48.1875 7.6277 48.1624C9.45378 48.0227 11.2763 48.0024 13.0906 48.2985C13.8213 48.4179 14.5319 48.6078 15.2023 48.9337C15.6013 49.1272 15.9719 49.3636 16.2812 49.6848C16.9576 50.3881 17.1335 51.2119 16.8419 52.1409C16.6578 52.7296 16.3048 53.2155 15.8964 53.6621C15.416 54.1863 14.86 54.6185 14.271 55.0102C13.2252 55.7063 12.1038 56.2519 10.947 56.726C8.9285 57.5534 6.84627 58.1922 4.76995 58.849C4.66961 58.8812 4.56692 58.9122 4.46304 58.9218C4.20099 58.9481 3.95547 58.7916 3.87992 58.5624C3.80084 58.3224 3.89645 58.0645 4.13725 57.9284C4.25765 57.8603 4.39576 57.8185 4.52796 57.7755C5.17954 57.5654 5.83349 57.3588 6.48507 57.1499C6.65032 57.0961 6.81322 57.0352 7.01743 56.9636C6.96903 56.1218 6.8203 55.3051 6.69872 54.486C6.5736 53.6442 6.42959 52.8036 6.2726 51.9666C6.11914 51.1487 5.93972 50.3367 5.76738 49.5069C5.2728 49.471 4.83015 49.5952 4.38041 49.6322C4.22342 49.6454 4.06643 49.6812 3.90943 49.6752C3.61079 49.6657 3.38652 49.4675 3.34992 49.2072C3.31451 48.9528 3.48095 48.6878 3.77841 48.6245C4.18919 48.5361 4.60941 48.4943 5.02609 48.431C5.16184 48.4107 5.29759 48.3833 5.42861 48.3606L5.42743 48.357ZM8.14943 56.5588C8.26865 56.5302 8.40322 56.5075 8.52952 56.4645C8.89427 56.3379 9.25783 56.2078 9.61903 56.0704C10.934 55.5702 12.2218 55.0102 13.4199 54.2567C14.0184 53.8806 14.5826 53.4615 15.0701 52.9421C15.3617 52.6316 15.6202 52.2973 15.7736 51.8913C16.0026 51.2896 15.8952 50.7582 15.3924 50.363C15.0926 50.1266 14.7432 49.9403 14.3926 49.7887C13.6773 49.4782 12.9088 49.3648 12.1415 49.2788C10.548 49.0985 8.95329 49.151 7.35975 49.2848C7.20865 49.2979 7.0611 49.3481 6.91709 49.3803C7.33023 51.7887 7.73747 54.16 8.14825 56.56L8.14943 56.5588Z" fill="#191919"/>
<path d="M101.215 49.7337C101.582 49.9451 101.905 50.1242 102.22 50.3164C102.338 50.3881 102.454 50.4776 102.543 50.5839C102.685 50.7558 102.689 51.003 102.573 51.1809C102.456 51.3612 102.283 51.4448 102.076 51.4101C101.942 51.3875 101.811 51.3266 101.686 51.2657C101.516 51.1833 101.353 51.0842 101.137 50.9636C101.11 51.231 101.076 51.44 101.069 51.6501C101.029 52.751 101.002 53.8531 101.136 54.9493C101.193 55.4233 101.305 55.8913 101.392 56.3618C101.424 56.5361 101.472 56.7104 101.474 56.8848C101.479 57.169 101.308 57.3707 101.056 57.4221C100.842 57.4651 100.611 57.3504 100.495 57.1176C100.432 56.9922 100.398 56.8525 100.36 56.7164C100.053 55.6322 99.9492 54.5194 99.9563 53.3982C99.9622 52.529 100.005 51.6597 100.031 50.7904C100.033 50.7021 100.031 50.6149 100.031 50.5385C99.9008 50.3415 99.6942 50.326 99.5172 50.2675C98.2471 49.846 96.9404 49.5833 95.6219 49.3755C94.4922 49.1976 93.3531 49.1403 92.2152 49.0758C92.0618 49.0675 91.9071 49.0866 91.7124 49.0937C91.6616 49.4842 91.599 49.8484 91.5684 50.2149C91.4291 51.877 91.2674 53.5391 91.1776 55.2036C91.1092 56.4788 91.1033 57.76 91.4114 59.0173C91.4397 59.1355 91.4456 59.2657 91.4279 59.3863C91.3972 59.5952 91.2709 59.7397 91.0679 59.803C90.8601 59.8675 90.6276 59.803 90.5095 59.6107C90.4187 59.4639 90.3419 59.2919 90.3171 59.1212C90.2227 58.4728 90.1106 57.8221 90.0822 57.169C90.0209 55.7481 90.094 54.3295 90.2345 52.9146C90.3502 51.7493 90.4529 50.5827 90.5603 49.4161C90.5662 49.3469 90.5603 49.2776 90.5603 49.169C90.4151 49.1546 90.2805 49.1236 90.1483 49.1319C89.2902 49.1869 88.432 49.237 87.5762 49.3134C86.4053 49.4185 85.2367 49.5487 84.0669 49.6633C83.9111 49.6788 83.7482 49.686 83.5959 49.6597C83.3292 49.6131 83.1462 49.3851 83.145 49.1439C83.145 48.8991 83.3115 48.6901 83.5865 48.6197C83.7388 48.5803 83.8969 48.5612 84.0539 48.5469C86.1869 48.3606 88.3187 48.1767 90.4517 47.9928C90.5213 47.9869 90.5898 47.9737 90.689 47.9606C90.722 47.8507 90.7716 47.7397 90.7881 47.6239C90.9569 46.4298 91.1316 45.2358 91.2803 44.0382C91.3394 43.5642 91.3323 43.0818 91.363 42.6042C91.3736 42.4478 91.3866 42.2854 91.4362 42.1385C91.5046 41.9343 91.6805 41.8328 91.8859 41.8269C92.0936 41.8197 92.2813 41.9224 92.3498 42.117C92.4241 42.3296 92.4761 42.5672 92.4666 42.7904C92.4442 43.3397 92.3994 43.889 92.3297 44.4346C92.1952 45.4901 92.0358 46.5433 91.8906 47.5976C91.8764 47.7003 91.8882 47.8054 91.8882 47.9606C94.6693 48.0299 97.3995 48.4203 100.088 49.2848C100.118 49.1391 100.148 49.0412 100.156 48.9421C100.326 46.9612 100.495 44.9815 100.66 43.0006C100.678 42.7893 100.667 42.5743 100.673 42.3618C100.675 42.2555 100.673 42.1481 100.693 42.0442C100.733 41.8304 100.87 41.7027 101.076 41.6537C101.285 41.6048 101.477 41.6693 101.586 41.8436C101.676 41.9857 101.741 42.1672 101.749 42.3355C101.767 42.689 101.76 43.046 101.73 43.3994C101.577 45.2382 101.411 47.077 101.254 48.9158C101.231 49.1797 101.226 49.4448 101.212 49.7349L101.215 49.7337Z" fill="#191919"/>
<path d="M35.9197 52.9445C35.837 53.1749 35.9598 53.3493 36.02 53.526C36.4225 54.6997 36.838 55.8687 37.2452 57.04C37.3031 57.206 37.3633 57.3767 37.3869 57.5499C37.4258 57.8448 37.2948 58.0502 37.0481 58.1409C36.8168 58.2269 36.5653 58.1361 36.4225 57.8878C36.3352 57.7361 36.275 57.5666 36.2159 57.3994C35.7827 56.1624 35.3531 54.923 34.921 53.6848C34.8573 53.5033 34.7876 53.3242 34.7168 53.1343C32.0491 53.5045 29.4133 53.8699 26.7232 54.2424C26.6606 54.3403 26.565 54.4884 26.4705 54.6364C25.7021 55.846 24.9348 57.0567 24.1652 58.2651C24.0708 58.4131 23.974 58.566 23.8512 58.6902C23.6541 58.8896 23.385 58.9027 23.1796 58.751C22.9695 58.597 22.8975 58.3487 23.0143 58.0908C23.0946 57.914 23.202 57.7505 23.3083 57.5881C25.0966 54.8251 26.8436 52.0358 28.4572 49.1654C29.5585 47.206 30.6079 45.2167 31.6808 43.2418C31.7741 43.071 31.8555 42.8896 31.9724 42.7379C32.251 42.3761 32.7231 42.4287 32.9037 42.8454C33.0088 43.0866 33.0713 43.3493 33.1315 43.6084C33.7324 46.2018 34.4737 48.7534 35.2763 51.2896C35.3295 51.4567 35.3932 51.6215 35.4522 51.7851C35.6777 51.877 35.8831 51.8078 36.0861 51.7755C36.9879 51.6358 37.8874 51.4866 38.7904 51.3516C38.9427 51.329 39.1067 51.3278 39.2555 51.36C39.4597 51.4042 39.5836 51.5558 39.6178 51.7696C39.6521 51.9857 39.56 52.2125 39.3605 52.3081C39.2047 52.3821 39.0288 52.4239 38.8577 52.4525C37.9582 52.6018 37.0564 52.7403 36.1557 52.886C36.0719 52.8991 35.9917 52.9266 35.9185 52.9457L35.9197 52.9445ZM32.1943 44.6078C30.7094 47.4221 29.2209 50.1146 27.6297 52.7463C27.5955 52.8036 27.5789 52.8728 27.5329 52.991C28.3238 52.9206 29.0651 52.8107 29.8075 52.7081C30.5724 52.603 31.3373 52.4967 32.0999 52.3821C32.84 52.271 33.5872 52.1982 34.319 52.0179C33.6143 49.5606 32.9226 47.1475 32.1943 44.6078Z" fill="#191919"/>
<path d="M76.6398 45.5427C76.4757 45.7648 76.3482 45.9081 76.2538 46.0704C75.8276 46.8048 75.3897 47.5331 74.9943 48.2842C74.443 49.3337 73.9343 50.4072 73.3925 51.4627C72.8589 52.5039 72.2711 53.514 71.5994 54.4705C71.3669 54.8024 71.1167 55.1296 70.8298 55.4125C69.7332 56.5003 68.6496 55.7875 68.2636 54.9051C68.0771 54.4776 67.9803 54.0263 67.9414 53.5654C67.7383 51.1546 67.7124 48.7439 67.9969 46.3355C68.0866 45.5773 68.1657 44.8191 68.2554 44.0609C68.2766 43.8854 68.3049 43.7075 68.3628 43.5415C68.456 43.2705 68.6779 43.1427 68.9341 43.1773C69.1595 43.2084 69.3354 43.3827 69.3767 43.6406C69.3933 43.7433 69.385 43.8531 69.3732 43.957C69.2729 44.8561 69.1714 45.7552 69.0651 46.6543C68.8916 48.1206 68.8338 49.5928 68.8975 51.0663C68.9376 51.9869 69.0085 52.9075 69.0958 53.8257C69.1206 54.0824 69.2197 54.3451 69.3401 54.5755C69.496 54.8716 69.7462 54.911 69.9929 54.6878C70.2007 54.5003 70.4002 54.289 70.5512 54.0549C71.0612 53.2681 71.5806 52.486 72.035 51.6669C72.5933 50.6615 73.0808 49.6167 73.6144 48.597C74.0983 47.6716 74.5906 46.751 75.1076 45.8436C75.3342 45.446 75.614 45.0746 75.8996 44.7176C76.0495 44.529 76.2479 44.3618 76.4556 44.2424C76.831 44.0251 77.237 44.1337 77.4601 44.511C77.5829 44.72 77.6667 44.9636 77.7151 45.2036C77.7824 45.5319 77.8142 45.871 77.8367 46.2066C77.9087 47.3039 77.9689 48.4036 78.035 49.5021C78.1082 50.7176 78.3985 51.8854 78.8199 53.0197C79.3263 54.3833 79.926 55.7063 80.5799 57.003C80.7298 57.2991 80.9541 57.5558 81.1477 57.8281C81.2091 57.914 81.2917 57.9845 81.3472 58.074C81.4818 58.2902 81.464 58.5421 81.3141 58.7164C81.1536 58.9039 80.8774 58.9504 80.6425 58.8179C80.5516 58.7666 80.4642 58.6985 80.397 58.6197C80.1939 58.3761 79.9555 58.1481 79.8127 57.871C78.8117 55.9343 77.8839 53.9642 77.3114 51.846C76.9998 50.6925 76.9053 49.5069 76.8558 48.3164C76.8251 47.5534 76.7743 46.7928 76.7271 46.031C76.7188 45.8985 76.6811 45.7672 76.6398 45.5415V45.5427Z" fill="#191919"/>
<path d="M52.3378 45.7684C52.6023 45.7684 52.8088 45.7779 53.0142 45.7672C54.3988 45.6943 55.7822 45.6084 57.1669 45.5451C59.1122 45.4567 61.0586 45.3851 63.0051 45.3039C63.3557 45.2896 63.7063 45.2537 64.0569 45.2478C64.2292 45.2454 64.4098 45.2645 64.5727 45.3158C64.7722 45.3779 64.8808 45.5415 64.8938 45.7588C64.9067 45.9749 64.8241 46.1588 64.6317 46.2388C64.4594 46.3116 64.2622 46.3499 64.0734 46.3582C63.0216 46.4084 61.9699 46.443 60.9182 46.4884C59.4108 46.554 57.9034 46.6209 56.3972 46.6961C55.1708 46.757 53.9455 46.831 52.7191 46.9003C52.6164 46.9063 52.5137 46.9266 52.3839 46.9445C52.3662 47.0722 52.3367 47.1893 52.3355 47.3075C52.3154 49.3146 52.398 51.3182 52.6259 53.3134C52.7887 54.7415 52.9753 56.166 53.1464 57.5916C53.1629 57.7301 53.17 57.8782 53.1405 58.0131C53.0909 58.2376 52.9469 58.3893 52.712 58.4251C52.4795 58.4609 52.254 58.3427 52.1596 58.1087C52.1006 57.963 52.0652 57.803 52.0439 57.6454C51.7642 55.5176 51.4643 53.3899 51.3581 51.2442C51.2979 50.0394 51.2814 48.8322 51.246 47.6263C51.2401 47.4352 51.2318 47.2442 51.2224 47.0066C50.8812 47.0221 50.5849 47.0281 50.291 47.0519C49.0847 47.1475 47.8783 47.2454 46.6719 47.3457C45.9023 47.409 45.1339 47.4794 44.3654 47.5427C44.2084 47.5558 44.0491 47.569 43.8921 47.5582C43.5734 47.5355 43.3774 47.3528 43.3538 47.0794C43.3278 46.7809 43.5061 46.5576 43.8425 46.4931C44.0491 46.4537 44.2592 46.4334 44.4693 46.4167C46.0085 46.2925 47.5466 46.1719 49.0858 46.049C49.715 45.9988 50.3441 45.9475 50.9745 45.8937C51.0429 45.8878 51.109 45.8651 51.2035 45.8436C51.2212 45.7218 51.2436 45.6048 51.2531 45.4866C51.2649 45.3457 51.253 45.2012 51.2719 45.0615C51.3156 44.7224 51.5293 44.5098 51.8078 44.5098C52.0888 44.5098 52.3071 44.7307 52.3343 45.0663C52.3508 45.2776 52.3378 45.4901 52.3378 45.7684Z" fill="#191919"/>
<path d="M37.8743 33.2143H36.0529L35.1428 31.6191L36.0529 30.0239H37.8743L38.7855 31.6191L37.8743 33.2143ZM36.0954 33.1403H37.8318L38.7005 31.6191L37.8318 30.0979H36.0954L35.2266 31.6191L36.0954 33.1403Z" fill="#9C989D"/>
<path d="M36.9629 33.0424C36.1874 33.0424 35.5559 32.4036 35.5559 31.6191C35.5559 30.8346 36.1874 30.1958 36.9629 30.1958C37.7385 30.1958 38.37 30.8346 38.37 31.6191C38.37 32.4036 37.7385 33.0424 36.9629 33.0424ZM36.9629 30.2687C36.2276 30.2687 35.6291 30.874 35.6291 31.6179C35.6291 32.3618 36.2276 32.9672 36.9629 32.9672C37.6983 32.9672 38.2968 32.3618 38.2968 31.6179C38.2968 30.874 37.6983 30.2687 36.9629 30.2687Z" fill="#9C989D"/>
<path d="M69.947 33.2143H68.1257L67.2156 31.6191L68.1257 30.0239H69.947L70.8583 31.6191L69.947 33.2143ZM68.1682 33.1403H69.9045L70.7733 31.6191L69.9045 30.0979H68.1682L67.2994 31.6191L68.1682 33.1403Z" fill="#9C989D"/>
<path d="M69.0357 33.0424C68.2602 33.0424 67.6287 32.4036 67.6287 31.6191C67.6287 30.8346 68.2602 30.1958 69.0357 30.1958C69.8112 30.1958 70.4427 30.8346 70.4427 31.6191C70.4427 32.4036 69.8112 33.0424 69.0357 33.0424ZM69.0357 30.2687C68.3003 30.2687 67.7018 30.874 67.7018 31.6179C67.7018 32.3618 68.3003 32.9672 69.0357 32.9672C69.7711 32.9672 70.3696 32.3618 70.3696 31.6179C70.3696 30.874 69.7711 30.2687 69.0357 30.2687Z" fill="#9C989D"/>
<path d="M42.079 68.2305H38.9238L38.932 73.6657H38.0645V67.4591H42.0873L42.079 68.2305Z" fill="black"/>
<path d="M45.953 72.1146H42.6927L42.0175 73.6669H41.1145L43.8932 67.4603H44.7608L47.5477 73.6669H46.627L45.9518 72.1146H45.953ZM45.6461 71.4054L44.3228 68.3642L42.9996 71.4054H45.6472H45.6461Z" fill="black"/>
<path d="M52.8774 68.0358C53.3331 68.4203 53.5609 68.9493 53.5609 69.6227C53.5609 70.2961 53.3331 70.8251 52.8774 71.2096C52.4218 71.594 51.7962 71.7863 51.0018 71.7863H49.4849V73.6657H48.6079V67.4591H51.0006C51.795 67.4591 52.4206 67.6513 52.8762 68.0358H52.8774ZM52.2459 70.6555C52.5375 70.4167 52.6838 70.0716 52.6838 69.6227C52.6838 69.1737 52.5375 68.8287 52.2459 68.5898C51.9532 68.351 51.5306 68.2304 50.9746 68.2304H49.4849V71.0149H50.9746C51.5294 71.0149 51.9532 70.8955 52.2459 70.6555Z" fill="black"/>
<path d="M58.4605 72.1146H55.2003L54.5251 73.6669H53.6221L56.4007 67.4603H57.2683L60.0553 73.6669H59.1345L58.4594 72.1146H58.4605ZM58.1536 71.4054L56.8304 68.3642L55.5072 71.4054H58.1536Z" fill="black"/>
<path d="M65.9809 70.9349H64.8147V73.6657H63.9553V70.9349H62.7808L61.0634 73.6657H60.0376L62.062 70.4382L60.1863 67.4591H61.1247L62.7643 70.154H63.9565V67.4591H64.8159V70.154H65.9904L67.6382 67.4591H68.5766L66.701 70.4561L68.7253 73.6657H67.6996L65.9821 70.9349H65.9809Z" fill="black"/>
</g>
<defs>
<clipPath id="clip0_44079_998">
<rect width="106" height="102" fill="white"/>
</clipPath>
</defs>
</svg>
