<svg width="35" height="35" viewBox="0 0 35 35" fill="none" xmlns="http://www.w3.org/2000/svg">
<g clip-path="url(#clip0_44079_1240)">
<path d="M17.5136 35.0273C27.1862 35.0273 35.0273 27.1862 35.0273 17.5136C35.0273 7.84112 27.1862 0 17.5136 0C7.84112 0 0 7.84112 0 17.5136C0 27.1862 7.84112 35.0273 17.5136 35.0273Z" fill="black"/>
<path fill-rule="evenodd" clip-rule="evenodd" d="M7.91119 17.3225C13.0125 15.0855 16.4225 13.6397 18.1411 12.9304C22.9969 10.9117 24.0063 10.5571 24.661 10.5298C24.7974 10.5298 25.1247 10.5571 25.343 10.7207C25.5067 10.8571 25.5612 11.0481 25.5885 11.1845C25.6158 11.3209 25.6431 11.621 25.6158 11.8665C25.343 14.6218 24.2245 21.3599 23.6244 24.4425C23.3788 25.7519 22.8878 26.1884 22.424 26.243C21.4147 26.3248 20.6236 25.561 19.6415 24.9335C18.1138 23.9242 17.2409 23.2967 15.7405 22.3147C14.0219 21.1689 15.1403 20.5415 16.1224 19.5321C16.3679 19.2593 20.8691 15.1946 20.9509 14.8127C20.9509 14.7582 20.9782 14.5945 20.8691 14.5126C20.76 14.4308 20.6236 14.4581 20.5145 14.4854C20.3508 14.5126 17.8956 16.1494 13.1216 19.3684C12.4124 19.8595 11.7849 20.0777 11.212 20.0777C10.5846 20.0777 9.3843 19.7231 8.48406 19.423C7.39287 19.0684 6.51992 18.8774 6.60176 18.2773C6.65632 17.9772 7.09279 17.6498 7.91119 17.3225Z" fill="#E9E9E9"/>
</g>
<defs>
<clipPath id="clip0_44079_1240">
<rect width="35" height="35" fill="white"/>
</clipPath>
</defs>
</svg>
