<svg width="35" height="35" viewBox="0 0 35 35" fill="none" xmlns="http://www.w3.org/2000/svg">
<g clip-path="url(#clip0_44079_1237)">
<path d="M0 16.7708C0 8.86499 0 4.91206 2.45603 2.45603C4.91206 0 8.86499 0 16.7708 0H18.2292C26.135 0 30.088 0 32.5439 2.45603C35 4.91206 35 8.86499 35 16.7708V18.2292C35 26.135 35 30.088 32.5439 32.5439C30.088 35 26.135 35 18.2292 35H16.7708C8.86499 35 4.91206 35 2.45603 32.5439C0 30.088 0 26.135 0 18.2292L0 16.7708Z" fill="black"/>
<path fill-rule="evenodd" clip-rule="evenodd" d="M9.47989 10.9375H6.92722C6.19788 10.9375 6.052 11.2808 6.052 11.6592C6.052 12.3352 6.91742 15.6879 10.0815 20.122C12.1909 23.1502 15.1629 24.7917 17.8673 24.7917C19.4899 24.7917 19.6906 24.4271 19.6906 23.7991V21.5104C19.6906 20.7812 19.8443 20.6357 20.3581 20.6357C20.7368 20.6357 21.3858 20.825 22.9003 22.285C24.6311 24.0154 24.9164 24.7917 25.8899 24.7917H28.4426C29.172 24.7917 29.5366 24.4271 29.3263 23.7076C29.0961 22.9906 28.2697 21.9501 27.1732 20.7169C26.5782 20.0139 25.6858 19.2569 25.4153 18.8783C25.0367 18.3916 25.1449 18.1753 25.4153 17.7427C25.4153 17.7427 28.5254 13.3626 28.8499 11.8756C29.0121 11.3348 28.8499 10.9375 28.0779 10.9375H25.5253C24.8762 10.9375 24.577 11.2808 24.4147 11.6592C24.4147 11.6592 23.1166 14.8226 21.2777 16.8775C20.6827 17.4723 20.4122 17.6616 20.0877 17.6616C19.9254 17.6616 19.6906 17.4723 19.6906 16.9316V11.8756C19.6906 11.2267 19.5022 10.9375 18.9612 10.9375H14.9499C14.5443 10.9375 14.3003 11.2386 14.3003 11.5241C14.3003 12.1392 15.2198 12.2811 15.3146 14.0115V17.7698C15.3146 18.5938 15.1657 18.7432 14.8412 18.7432C13.9759 18.7432 11.8708 15.5656 10.6223 11.9297C10.3777 11.223 10.1323 10.9375 9.47989 10.9375Z" fill="#E9E9E9"/>
</g>
<defs>
<clipPath id="clip0_44079_1237">
<rect width="35" height="35" fill="white"/>
</clipPath>
</defs>
</svg>
