<svg width="30" height="30" viewBox="0 0 30 30" fill="none" xmlns="http://www.w3.org/2000/svg">
<path d="M15 15L25.0912 9.21875M15 15V26.5625M15 15L9.95375 12.11M25.0912 9.21875C24.7411 8.6176 24.2389 8.11923 23.635 7.77375L20.3125 5.87M25.0912 9.21875C25.435 9.80875 25.625 10.4875 25.625 11.1937V18.8062C25.6246 19.5012 25.4403 20.1837 25.0908 20.7844C24.7413 21.385 24.239 21.8825 23.635 22.2262L16.99 26.0337C16.3842 26.3806 15.6981 26.5629 15 26.5625M15 26.5625C14.3019 26.5629 13.6158 26.3806 13.01 26.0337L6.365 22.2262C5.13375 21.5212 4.375 20.2187 4.375 18.8062V11.1937C4.37482 10.4999 4.55856 9.81844 4.9075 9.21875M9.95375 12.11L4.9075 9.21875M9.95375 12.11L20.3125 5.87M20.3125 5.87L16.99 3.96625C16.3843 3.61888 15.6982 3.4361 15 3.4361C14.3018 3.4361 13.6157 3.61888 13.01 3.96625L6.365 7.77375C5.76069 8.11905 5.258 8.61744 4.9075 9.21875" stroke="black" stroke-width="1.5" stroke-linejoin="round"/>
</svg>
