<svg width="30" height="30" viewBox="0 0 30 30" fill="none" xmlns="http://www.w3.org/2000/svg">
<path d="M27 19.2775V23.125C27 23.7075 27 23.9987 26.905 24.2287C26.7779 24.5344 26.5347 24.7772 26.2287 24.9038C25.9987 25 25.7075 25 25.125 25C24.5425 25 24.2513 25 24.0213 24.905C23.7156 24.7779 23.4728 24.5347 23.3462 24.2287C23.25 23.9987 23.25 23.7075 23.25 23.125C23.25 22.5425 23.25 22.2513 23.155 22.0213C23.0279 21.7156 22.7847 21.4728 22.4787 21.3462C22.2487 21.25 21.9575 21.25 21.375 21.25H7.625C7.0425 21.25 6.75125 21.25 6.52125 21.345C6.21558 21.4721 5.97282 21.7153 5.84625 22.0213C5.75 22.2513 5.75 22.5425 5.75 23.125C5.75 23.7075 5.75 23.9987 5.655 24.2287C5.52786 24.5344 5.28466 24.7772 4.97875 24.9038C4.74875 25 4.4575 25 3.875 25C3.2925 25 3.00125 25 2.77125 24.905C2.46558 24.7779 2.22282 24.5347 2.09625 24.2287C2 23.9987 2 23.7075 2 23.125V19.2775C2 17.775 2 17.0238 2.215 16.315C2.43 15.6063 2.84625 14.9812 3.68 13.7312L4.5 12.5L5.7025 9.615C6.63375 7.3775 7.1 6.26 8.045 5.63C8.99 5 10.2 5 12.625 5H16.375C18.7988 5 20.01 5 20.955 5.63C21.9 6.26 22.3663 7.37875 23.2975 9.615L24.5 12.5L25.32 13.7312C26.1538 14.9812 26.57 15.6063 26.785 16.315C27 17.0238 27 17.775 27 19.2775Z" stroke="black" stroke-width="1.5" stroke-linecap="round" stroke-linejoin="round"/>
<path d="M2 10.625L4.5 12.5L6.70125 13.05C6.90125 13.1 7.10333 13.125 7.3075 13.125H21.6925C21.8967 13.125 22.0988 13.1 22.2988 13.05L24.5 12.5L27 10.625" stroke="black" stroke-width="1.5" stroke-linecap="round" stroke-linejoin="round"/>
<path d="M22 17.5V17.5125M7 17.5V17.5125" stroke="black" stroke-width="2" stroke-linecap="round" stroke-linejoin="round"/>
</svg>
