<svg width="24" height="24" viewBox="0 0 24 24" fill="none" xmlns="http://www.w3.org/2000/svg">
<path fill-rule="evenodd" clip-rule="evenodd" d="M10.6241 2.39609e-08C8.92984 0.000144365 7.26018 0.405455 5.75442 1.18212C4.24866 1.95878 2.95046 3.08427 1.96814 4.46469C0.98582 5.84511 0.347858 7.44043 0.107482 9.11755C-0.132895 10.7947 0.0312829 12.505 0.586319 14.1057C1.14136 15.7065 2.07115 17.1513 3.29814 18.3197C4.52513 19.488 6.01373 20.346 7.63974 20.822C9.26575 21.298 10.982 21.3783 12.6454 21.0561C14.3087 20.734 15.8709 20.0187 17.2016 18.97L21.7666 23.535C22.0023 23.7627 22.3181 23.8887 22.6458 23.8858C22.9736 23.883 23.2871 23.7515 23.5189 23.5198C23.7506 23.288 23.8821 22.9745 23.8849 22.6468C23.8878 22.319 23.7618 22.0033 23.5341 21.7675L18.9691 17.2025C20.2041 15.6358 20.973 13.753 21.188 11.7697C21.4029 9.78631 21.0551 7.78253 20.1844 5.98762C19.3137 4.19271 17.9552 2.6792 16.2645 1.62029C14.5737 0.561383 12.6191 -0.000133929 10.6241 2.39609e-08ZM2.4991 10.625C2.4991 8.47012 3.35512 6.40349 4.87885 4.87976C6.40259 3.35602 8.46921 2.5 10.6241 2.5C12.779 2.5 14.8456 3.35602 16.3693 4.87976C17.8931 6.40349 18.7491 8.47012 18.7491 10.625C18.7491 12.7799 17.8931 14.8465 16.3693 16.3702C14.8456 17.894 12.779 18.75 10.6241 18.75C8.46921 18.75 6.40259 17.894 4.87885 16.3702C3.35512 14.8465 2.4991 12.7799 2.4991 10.625Z" fill="white"/>
</svg>
